<svg id="visual" viewBox="0 0 200 600" width="200" height="600" xmlns="http://www.w3.org/2000/svg" xmlns:xlink="http://www.w3.org/1999/xlink" version="1.1"><g stroke-width="1" stroke-linejoin="bevel"><path d="M112 307L111 389L200 310Z" fill="#2c5467" stroke="#2c5467"></path><path d="M111 389L200 398L200 310Z" fill="#082437" stroke="#082437"></path><path d="M200 310L120 212L112 307Z" fill="#082437" stroke="#082437"></path><path d="M112 307L0 394L111 389Z" fill="#02192c" stroke="#02192c"></path><path d="M111 389L200 526L200 398Z" fill="#274e61" stroke="#274e61"></path><path d="M0 273L0 394L112 307Z" fill="#193b4f" stroke="#193b4f"></path><path d="M120 212L0 273L112 307Z" fill="#112f43" stroke="#112f43"></path><path d="M200 310L200 174L120 212Z" fill="#153549" stroke="#153549"></path><path d="M0 394L87 518L111 389Z" fill="#2c5467" stroke="#2c5467"></path><path d="M87 518L200 526L111 389Z" fill="#112f43" stroke="#112f43"></path><path d="M0 104L0 234L120 212Z" fill="#112f43" stroke="#112f43"></path><path d="M120 212L0 234L0 273Z" fill="#2c5467" stroke="#2c5467"></path><path d="M0 394L0 512L87 518Z" fill="#051e32" stroke="#051e32"></path><path d="M87 518L200 600L200 526Z" fill="#082437" stroke="#082437"></path><path d="M200 174L200 126L120 212Z" fill="#274e61" stroke="#274e61"></path><path d="M81 600L200 600L87 518Z" fill="#274e61" stroke="#274e61"></path><path d="M0 512L81 600L87 518Z" fill="#23475b" stroke="#23475b"></path><path d="M200 126L99 88L120 212Z" fill="#193b4f" stroke="#193b4f"></path><path d="M99 88L0 104L120 212Z" fill="#02192c" stroke="#02192c"></path><path d="M0 512L0 600L81 600Z" fill="#1e4155" stroke="#1e4155"></path><path d="M200 126L139 0L99 88Z" fill="#051e32" stroke="#051e32"></path><path d="M99 88L0 0L0 104Z" fill="#2c5467" stroke="#2c5467"></path><path d="M200 126L200 0L139 0Z" fill="#02192c" stroke="#02192c"></path><path d="M139 0L0 0L99 88Z" fill="#051e32" stroke="#051e32"></path></g></svg>